<svg width="225" height="33" viewBox="0 0 225 33" fill="none" xmlns="http://www.w3.org/2000/svg">
<path d="M8.92188 0.0227051H0V32.9661H8.92188V0.0227051Z" fill="#E0E0E0"/>
<path d="M26.4092 0.0224609H17.4874V32.9659H26.4092V0.0224609Z" fill="#E0E0E0"/>
<path d="M34.5726 0.0224609H35.1629C39.7621 0.0224609 43.4945 3.72717 43.4945 8.29226V32.9659H34.5726V0.0224609Z" fill="#E0E0E0"/>
<path d="M134.518 0.0227051H125.596V32.9661H134.518V0.0227051Z" fill="#E0E0E0"/>
<path d="M108.32 24.784C107.989 25.9528 107.553 27.0396 107.008 28.0472C106.461 29.0491 105.802 29.9207 105.038 30.6594C104.265 31.3896 103.376 31.9698 102.366 32.3802C101.351 32.7934 100.214 33 98.9504 33C98.7195 33 98.4372 32.9943 98.1093 32.9802C97.7814 32.966 97.4364 32.9349 97.0742 32.884C96.7178 32.8358 96.3614 32.7651 96.0078 32.683C95.6543 32.6009 95.352 32.4906 95.0926 32.3632C94.8331 32.2358 94.6221 32.0575 94.4539 31.8283C94.2913 31.6019 94.2657 31.3245 94.3797 30.9934L95.8681 25.7774C96.0107 25.2623 96.3272 25.0047 96.8176 25.0047C96.9716 25.0047 97.1341 25.033 97.2881 25.0811C97.4506 25.1292 97.6274 25.1576 97.827 25.1576C98.3174 25.1576 98.7736 25.0104 99.1956 24.7189C99.6205 24.4274 99.9113 23.9887 100.068 23.4028L104.379 8.21601C104.71 7.04714 105.144 5.95755 105.685 4.95C106.224 3.94811 106.877 3.07639 107.656 2.34337C108.431 1.60752 109.321 1.033 110.327 0.619795C111.331 0.209417 112.474 0 113.752 0C113.94 0 114.165 0.0028067 114.433 0.0112973C114.701 0.0197878 114.981 0.0424584 115.274 0.0764206C115.568 0.110383 115.867 0.152819 116.17 0.200932C116.472 0.251876 116.754 0.319795 117.028 0.407531C117.205 0.464134 117.382 0.537719 117.567 0.619795C117.755 0.707531 117.918 0.815093 118.052 0.953772C118.188 1.08679 118.285 1.23962 118.345 1.41226C118.402 1.57924 118.394 1.78018 118.32 2.01226L116.831 7.22828C116.674 7.74337 116.358 8.00095 115.885 8.00095C115.728 8.00095 115.565 7.97547 115.397 7.92453C115.234 7.87642 115.052 7.85094 114.85 7.85094C114.359 7.85094 113.909 8.00093 113.492 8.30093C113.076 8.60093 112.788 9.03677 112.628 9.60281L108.317 24.7924L108.32 24.784Z" fill="#E0E0E0"/>
<path d="M76.8923 0.0227051V2.66609C74.2947 0.99345 71.1953 0.0227051 67.8763 0.0227051C58.7121 0.0227051 51.29 7.39816 51.29 16.4944C51.29 25.5906 58.7121 32.9661 67.8763 32.9661C71.1953 32.9661 74.2919 31.9954 76.8923 30.3227V32.9661H85.8142V0.0227051H76.8923ZM67.5256 26.2585C62.0938 26.2585 57.6885 21.8859 57.6885 16.4944C57.6885 11.1029 62.0938 6.73024 67.5256 6.73024C72.9575 6.73024 77.3628 11.1029 77.3628 16.4944C77.3628 21.8859 72.9575 26.2585 67.5256 26.2585Z" fill="#E0E0E0"/>
<path d="M157.511 0.0227051C148.347 0.0227051 140.917 7.39816 140.917 16.4944C140.917 25.5906 148.347 32.9661 157.511 32.9661C166.676 32.9661 174.106 25.5906 174.106 16.4944C174.106 7.39816 166.676 0.0227051 157.511 0.0227051ZM157.449 26.1935C152.017 26.1935 147.611 21.8208 147.611 16.4293C147.611 11.0378 152.017 6.66515 157.449 6.66515C162.88 6.66515 167.286 11.0378 167.286 16.4293C167.286 21.8208 162.88 26.1935 157.449 26.1935Z" fill="#E0E0E0"/>
<path d="M190.427 0.0253906H181.505V32.9688H190.427V0.0253906Z" fill="#E0E0E0"/>
<path d="M207.915 0.0253906H198.993V32.9688H207.915V0.0253906Z" fill="#E0E0E0"/>
<path d="M216.078 0.0253906H225V24.699C225 29.2641 221.268 32.9688 216.668 32.9688H216.078V0.0253906Z" fill="#E0E0E0"/>
</svg>
